<mxfile host="app.diagrams.net" agent="Mozilla/5.0 (Windows NT 10.0; Win64; x64) AppleWebKit/537.36 (KHTML, like Gecko) Chrome/127.0.0.0 Safari/537.36" version="24.7.5">
  <diagram name="Page-1" id="GbAZ9pCAOmejJWQMQUB9">
    <mxGraphModel dx="1050" dy="565" grid="1" gridSize="10" guides="1" tooltips="1" connect="1" arrows="1" fold="1" page="1" pageScale="1" pageWidth="827" pageHeight="1169" math="0" shadow="0">
      <root>
        <mxCell id="0" />
        <mxCell id="1" parent="0" />
        <mxCell id="z9wDW5BicYT2UsKiLwsP-1" style="edgeStyle=orthogonalEdgeStyle;rounded=0;orthogonalLoop=1;jettySize=auto;html=1;exitX=1;exitY=0.5;exitDx=0;exitDy=0;entryX=0;entryY=0.5;entryDx=0;entryDy=0;endArrow=none;endFill=0;" edge="1" parent="1" source="z9wDW5BicYT2UsKiLwsP-2" target="z9wDW5BicYT2UsKiLwsP-6">
          <mxGeometry relative="1" as="geometry" />
        </mxCell>
        <mxCell id="z9wDW5BicYT2UsKiLwsP-2" value="Form" style="rounded=0;whiteSpace=wrap;html=1;" vertex="1" parent="1">
          <mxGeometry x="110" y="258.32999999999987" width="120" height="40" as="geometry" />
        </mxCell>
        <mxCell id="z9wDW5BicYT2UsKiLwsP-3" style="edgeStyle=orthogonalEdgeStyle;rounded=0;orthogonalLoop=1;jettySize=auto;html=1;exitX=1;exitY=0.5;exitDx=0;exitDy=0;entryX=0;entryY=0.5;entryDx=0;entryDy=0;endArrow=none;endFill=0;" edge="1" parent="1" source="z9wDW5BicYT2UsKiLwsP-4" target="z9wDW5BicYT2UsKiLwsP-32">
          <mxGeometry relative="1" as="geometry" />
        </mxCell>
        <mxCell id="z9wDW5BicYT2UsKiLwsP-4" value="Inconsistency" style="rounded=0;whiteSpace=wrap;html=1;" vertex="1" parent="1">
          <mxGeometry x="109.99999999999989" y="323.0800000000001" width="120" height="40" as="geometry" />
        </mxCell>
        <mxCell id="z9wDW5BicYT2UsKiLwsP-5" style="edgeStyle=orthogonalEdgeStyle;rounded=0;orthogonalLoop=1;jettySize=auto;html=1;exitX=1;exitY=0.5;exitDx=0;exitDy=0;entryX=0;entryY=0.5;entryDx=0;entryDy=0;endArrow=none;endFill=0;shape=link;" edge="1" parent="1" source="z9wDW5BicYT2UsKiLwsP-6" target="z9wDW5BicYT2UsKiLwsP-12">
          <mxGeometry relative="1" as="geometry">
            <mxPoint x="235" y="-426.5" as="targetPoint" />
            <Array as="points" />
          </mxGeometry>
        </mxCell>
        <mxCell id="z9wDW5BicYT2UsKiLwsP-6" value="has" style="rhombus;whiteSpace=wrap;html=1;" vertex="1" parent="1">
          <mxGeometry x="250" y="248.75" width="70" height="60" as="geometry" />
        </mxCell>
        <mxCell id="z9wDW5BicYT2UsKiLwsP-7" value="1" style="text;html=1;align=center;verticalAlign=middle;whiteSpace=wrap;rounded=0;" vertex="1" parent="1">
          <mxGeometry x="232.9999999999999" y="264.91" width="10" height="10.17" as="geometry" />
        </mxCell>
        <mxCell id="z9wDW5BicYT2UsKiLwsP-8" value="N" style="text;html=1;align=center;verticalAlign=middle;whiteSpace=wrap;rounded=0;" vertex="1" parent="1">
          <mxGeometry x="379.70000000000005" y="265.33000000000004" width="10" height="10.17" as="geometry" />
        </mxCell>
        <mxCell id="z9wDW5BicYT2UsKiLwsP-9" style="rounded=0;orthogonalLoop=1;jettySize=auto;html=1;exitX=0.25;exitY=0;exitDx=0;exitDy=0;entryX=0.5;entryY=1;entryDx=0;entryDy=0;endArrow=none;endFill=0;" edge="1" parent="1" source="z9wDW5BicYT2UsKiLwsP-12" target="z9wDW5BicYT2UsKiLwsP-22">
          <mxGeometry relative="1" as="geometry" />
        </mxCell>
        <mxCell id="z9wDW5BicYT2UsKiLwsP-10" style="rounded=0;orthogonalLoop=1;jettySize=auto;html=1;exitX=0.5;exitY=1;exitDx=0;exitDy=0;entryX=0.5;entryY=0;entryDx=0;entryDy=0;endArrow=none;endFill=0;shape=link;" edge="1" parent="1" source="z9wDW5BicYT2UsKiLwsP-12" target="z9wDW5BicYT2UsKiLwsP-15">
          <mxGeometry relative="1" as="geometry" />
        </mxCell>
        <mxCell id="z9wDW5BicYT2UsKiLwsP-11" style="edgeStyle=orthogonalEdgeStyle;rounded=0;orthogonalLoop=1;jettySize=auto;html=1;exitX=1;exitY=0.5;exitDx=0;exitDy=0;entryX=0;entryY=0.5;entryDx=0;entryDy=0;shape=link;" edge="1" parent="1" source="z9wDW5BicYT2UsKiLwsP-12" target="z9wDW5BicYT2UsKiLwsP-42">
          <mxGeometry relative="1" as="geometry" />
        </mxCell>
        <mxCell id="z9wDW5BicYT2UsKiLwsP-12" value="&lt;div&gt;&lt;span style=&quot;background-color: initial;&quot;&gt;ChangeLog&lt;/span&gt;&lt;br&gt;&lt;/div&gt;" style="rounded=0;whiteSpace=wrap;html=1;" vertex="1" parent="1">
          <mxGeometry x="394.5300000000002" y="258.75" width="120" height="40" as="geometry" />
        </mxCell>
        <mxCell id="z9wDW5BicYT2UsKiLwsP-13" style="rounded=0;orthogonalLoop=1;jettySize=auto;html=1;exitX=0.5;exitY=1;exitDx=0;exitDy=0;entryX=0.5;entryY=0;entryDx=0;entryDy=0;endArrow=none;endFill=0;" edge="1" parent="1" source="z9wDW5BicYT2UsKiLwsP-15" target="z9wDW5BicYT2UsKiLwsP-18">
          <mxGeometry relative="1" as="geometry" />
        </mxCell>
        <mxCell id="z9wDW5BicYT2UsKiLwsP-14" style="rounded=0;orthogonalLoop=1;jettySize=auto;html=1;exitX=0.5;exitY=1;exitDx=0;exitDy=0;entryX=0.5;entryY=0;entryDx=0;entryDy=0;endArrow=none;endFill=0;" edge="1" parent="1" source="z9wDW5BicYT2UsKiLwsP-15" target="z9wDW5BicYT2UsKiLwsP-39">
          <mxGeometry relative="1" as="geometry" />
        </mxCell>
        <mxCell id="z9wDW5BicYT2UsKiLwsP-15" value="d" style="ellipse;whiteSpace=wrap;html=1;aspect=fixed;" vertex="1" parent="1">
          <mxGeometry x="439.53" y="326.25" width="30" height="30" as="geometry" />
        </mxCell>
        <mxCell id="z9wDW5BicYT2UsKiLwsP-16" style="rounded=0;orthogonalLoop=1;jettySize=auto;html=1;exitX=0.5;exitY=0;exitDx=0;exitDy=0;entryX=0.5;entryY=1;entryDx=0;entryDy=0;endArrow=none;endFill=0;" edge="1" parent="1" source="z9wDW5BicYT2UsKiLwsP-17" target="z9wDW5BicYT2UsKiLwsP-15">
          <mxGeometry relative="1" as="geometry" />
        </mxCell>
        <mxCell id="z9wDW5BicYT2UsKiLwsP-17" value="FormChangeLog" style="rounded=0;whiteSpace=wrap;html=1;" vertex="1" parent="1">
          <mxGeometry x="263.59000000000026" y="396.25" width="120" height="40" as="geometry" />
        </mxCell>
        <mxCell id="z9wDW5BicYT2UsKiLwsP-18" value="TermsChangeLog" style="rounded=0;whiteSpace=wrap;html=1;" vertex="1" parent="1">
          <mxGeometry x="394.5300000000002" y="396.25" width="120" height="40" as="geometry" />
        </mxCell>
        <mxCell id="z9wDW5BicYT2UsKiLwsP-19" style="rounded=0;orthogonalLoop=1;jettySize=auto;html=1;entryX=0;entryY=1;entryDx=0;entryDy=0;endArrow=none;endFill=0;exitX=0.858;exitY=0.008;exitDx=0;exitDy=0;exitPerimeter=0;" edge="1" parent="1" source="z9wDW5BicYT2UsKiLwsP-12" target="z9wDW5BicYT2UsKiLwsP-25">
          <mxGeometry relative="1" as="geometry">
            <mxPoint x="544.5300000000002" y="286.25" as="sourcePoint" />
          </mxGeometry>
        </mxCell>
        <mxCell id="z9wDW5BicYT2UsKiLwsP-20" style="rounded=0;orthogonalLoop=1;jettySize=auto;html=1;exitX=0.5;exitY=1;exitDx=0;exitDy=0;entryX=0;entryY=0;entryDx=0;entryDy=0;endArrow=none;endFill=0;" edge="1" parent="1" source="z9wDW5BicYT2UsKiLwsP-21" target="z9wDW5BicYT2UsKiLwsP-12">
          <mxGeometry relative="1" as="geometry">
            <mxPoint x="102.53000000000009" y="576.25" as="targetPoint" />
          </mxGeometry>
        </mxCell>
        <mxCell id="z9wDW5BicYT2UsKiLwsP-21" value="&lt;u&gt;Id&lt;/u&gt;" style="ellipse;whiteSpace=wrap;html=1;" vertex="1" parent="1">
          <mxGeometry x="339.7000000000003" y="182.5" width="50" height="27.5" as="geometry" />
        </mxCell>
        <mxCell id="z9wDW5BicYT2UsKiLwsP-22" value="Reason" style="ellipse;whiteSpace=wrap;html=1;" vertex="1" parent="1">
          <mxGeometry x="368.59000000000015" y="140" width="65" height="37.5" as="geometry" />
        </mxCell>
        <mxCell id="z9wDW5BicYT2UsKiLwsP-23" style="rounded=0;orthogonalLoop=1;jettySize=auto;html=1;exitX=0.5;exitY=1;exitDx=0;exitDy=0;entryX=0.614;entryY=-0.042;entryDx=0;entryDy=0;endArrow=none;endFill=0;entryPerimeter=0;" edge="1" parent="1" source="z9wDW5BicYT2UsKiLwsP-24" target="z9wDW5BicYT2UsKiLwsP-12">
          <mxGeometry relative="1" as="geometry" />
        </mxCell>
        <mxCell id="z9wDW5BicYT2UsKiLwsP-24" value="ChangedAt" style="ellipse;whiteSpace=wrap;html=1;" vertex="1" parent="1">
          <mxGeometry x="417.86000000000035" y="172.5" width="75" height="37.5" as="geometry" />
        </mxCell>
        <mxCell id="z9wDW5BicYT2UsKiLwsP-25" value="Diff" style="ellipse;whiteSpace=wrap;html=1;" vertex="1" parent="1">
          <mxGeometry x="488.5899999999999" y="201.08000000000004" width="65" height="27.5" as="geometry" />
        </mxCell>
        <mxCell id="z9wDW5BicYT2UsKiLwsP-26" value="" style="endArrow=none;html=1;rounded=0;curved=1;" edge="1" parent="1">
          <mxGeometry width="50" height="50" relative="1" as="geometry">
            <mxPoint x="420.23000000000025" y="378.25" as="sourcePoint" />
            <mxPoint x="397" y="355.5" as="targetPoint" />
            <Array as="points">
              <mxPoint x="390.23000000000025" y="378.25" />
            </Array>
          </mxGeometry>
        </mxCell>
        <mxCell id="z9wDW5BicYT2UsKiLwsP-27" value="" style="endArrow=none;html=1;rounded=0;curved=1;" edge="1" parent="1">
          <mxGeometry width="50" height="50" relative="1" as="geometry">
            <mxPoint x="484.5300000000002" y="376.25" as="sourcePoint" />
            <mxPoint x="505" y="353.5" as="targetPoint" />
            <Array as="points">
              <mxPoint x="514.5300000000002" y="376.25" />
            </Array>
          </mxGeometry>
        </mxCell>
        <mxCell id="z9wDW5BicYT2UsKiLwsP-28" style="edgeStyle=orthogonalEdgeStyle;rounded=0;orthogonalLoop=1;jettySize=auto;html=1;exitX=1;exitY=0.5;exitDx=0;exitDy=0;entryX=0;entryY=0;entryDx=0;entryDy=0;shape=link;" edge="1" parent="1" source="z9wDW5BicYT2UsKiLwsP-29" target="z9wDW5BicYT2UsKiLwsP-12">
          <mxGeometry relative="1" as="geometry">
            <Array as="points">
              <mxPoint x="350" y="215" />
              <mxPoint x="350" y="259" />
            </Array>
          </mxGeometry>
        </mxCell>
        <mxCell id="z9wDW5BicYT2UsKiLwsP-29" value="has" style="rhombus;whiteSpace=wrap;html=1;" vertex="1" parent="1">
          <mxGeometry x="250.00000000000023" y="184.83000000000004" width="70" height="60" as="geometry" />
        </mxCell>
        <mxCell id="z9wDW5BicYT2UsKiLwsP-30" value="N" style="text;html=1;align=center;verticalAlign=middle;whiteSpace=wrap;rounded=0;" vertex="1" parent="1">
          <mxGeometry x="378.23" y="246.57999999999993" width="10" height="10.17" as="geometry" />
        </mxCell>
        <mxCell id="z9wDW5BicYT2UsKiLwsP-31" style="edgeStyle=orthogonalEdgeStyle;rounded=0;orthogonalLoop=1;jettySize=auto;html=1;exitX=1;exitY=0.5;exitDx=0;exitDy=0;entryX=0;entryY=1;entryDx=0;entryDy=0;endArrow=none;endFill=0;shape=link;" edge="1" parent="1" source="z9wDW5BicYT2UsKiLwsP-32" target="z9wDW5BicYT2UsKiLwsP-12">
          <mxGeometry relative="1" as="geometry">
            <Array as="points">
              <mxPoint x="350" y="344" />
              <mxPoint x="350" y="299" />
            </Array>
          </mxGeometry>
        </mxCell>
        <mxCell id="z9wDW5BicYT2UsKiLwsP-32" value="has" style="rhombus;whiteSpace=wrap;html=1;" vertex="1" parent="1">
          <mxGeometry x="249.9999999999999" y="313.5000000000001" width="70" height="60" as="geometry" />
        </mxCell>
        <mxCell id="z9wDW5BicYT2UsKiLwsP-33" value="N" style="text;html=1;align=center;verticalAlign=middle;whiteSpace=wrap;rounded=0;" vertex="1" parent="1">
          <mxGeometry x="379.70000000000005" y="286.5799999999999" width="10" height="10.17" as="geometry" />
        </mxCell>
        <mxCell id="z9wDW5BicYT2UsKiLwsP-34" value="Admin" style="rounded=0;whiteSpace=wrap;html=1;" vertex="1" parent="1">
          <mxGeometry x="625" y="258.75" width="120" height="40" as="geometry" />
        </mxCell>
        <mxCell id="z9wDW5BicYT2UsKiLwsP-35" style="edgeStyle=orthogonalEdgeStyle;rounded=0;orthogonalLoop=1;jettySize=auto;html=1;exitX=1;exitY=0.5;exitDx=0;exitDy=0;entryX=0;entryY=0.5;entryDx=0;entryDy=0;endArrow=none;endFill=0;" edge="1" parent="1" source="z9wDW5BicYT2UsKiLwsP-36" target="z9wDW5BicYT2UsKiLwsP-29">
          <mxGeometry relative="1" as="geometry" />
        </mxCell>
        <mxCell id="z9wDW5BicYT2UsKiLwsP-36" value="Terms" style="rounded=0;whiteSpace=wrap;html=1;" vertex="1" parent="1">
          <mxGeometry x="110" y="194.41000000000005" width="120" height="40" as="geometry" />
        </mxCell>
        <mxCell id="z9wDW5BicYT2UsKiLwsP-37" value="1" style="text;html=1;align=center;verticalAlign=middle;whiteSpace=wrap;rounded=0;" vertex="1" parent="1">
          <mxGeometry x="234.9999999999999" y="200.66000000000005" width="8" height="10" as="geometry" />
        </mxCell>
        <mxCell id="z9wDW5BicYT2UsKiLwsP-38" value="1" style="text;html=1;align=center;verticalAlign=middle;whiteSpace=wrap;rounded=0;" vertex="1" parent="1">
          <mxGeometry x="235" y="323.0800000000001" width="8" height="19.75" as="geometry" />
        </mxCell>
        <mxCell id="z9wDW5BicYT2UsKiLwsP-39" value="Inconsistency&lt;div&gt;ChangeLog&lt;/div&gt;" style="rounded=0;whiteSpace=wrap;html=1;" vertex="1" parent="1">
          <mxGeometry x="526.9500000000003" y="396.25" width="120" height="40" as="geometry" />
        </mxCell>
        <mxCell id="z9wDW5BicYT2UsKiLwsP-40" value="" style="endArrow=none;html=1;rounded=0;curved=1;" edge="1" parent="1">
          <mxGeometry width="50" height="50" relative="1" as="geometry">
            <mxPoint x="445" y="373.5" as="sourcePoint" />
            <mxPoint x="465" y="373.5" as="targetPoint" />
            <Array as="points">
              <mxPoint x="455" y="383.5" />
            </Array>
          </mxGeometry>
        </mxCell>
        <mxCell id="z9wDW5BicYT2UsKiLwsP-41" style="edgeStyle=orthogonalEdgeStyle;rounded=0;orthogonalLoop=1;jettySize=auto;html=1;exitX=1;exitY=0.5;exitDx=0;exitDy=0;entryX=0;entryY=0.5;entryDx=0;entryDy=0;endArrow=none;endFill=0;" edge="1" parent="1" source="z9wDW5BicYT2UsKiLwsP-42" target="z9wDW5BicYT2UsKiLwsP-34">
          <mxGeometry relative="1" as="geometry" />
        </mxCell>
        <mxCell id="z9wDW5BicYT2UsKiLwsP-42" value="by" style="rhombus;whiteSpace=wrap;html=1;" vertex="1" parent="1">
          <mxGeometry x="536.0000000000002" y="248.7499999999999" width="70" height="60" as="geometry" />
        </mxCell>
        <mxCell id="z9wDW5BicYT2UsKiLwsP-43" value="N" style="text;html=1;align=center;verticalAlign=middle;whiteSpace=wrap;rounded=0;" vertex="1" parent="1">
          <mxGeometry x="519.7" y="262" width="10" height="10.17" as="geometry" />
        </mxCell>
      </root>
    </mxGraphModel>
  </diagram>
</mxfile>
